M48
; DRILL file {KiCad (6.0.5)} date Wed Jun 29 09:53:39 2022
; FORMAT={-:-/ absolute / inch / decimal}
; #@! TF.CreationDate,2022-06-29T09:53:39+09:30
; #@! TF.GenerationSoftware,Kicad,Pcbnew,(6.0.5)
; #@! TF.FileFunction,Plated,1,2,PTH
FMAT,2
INCH
; #@! TA.AperFunction,Plated,PTH,ViaDrill
T1C0.0118
; #@! TA.AperFunction,Plated,PTH,ComponentDrill
T2C0.0315
; #@! TA.AperFunction,Plated,PTH,ComponentDrill
T3C0.0551
%
G90
G05
T1
X5.55Y-3.65
T2
X4.885Y-2.935
X5.06Y-3.3501
X5.06Y-3.4501
X5.06Y-3.5501
X5.06Y-3.6501
X5.06Y-3.7501
X5.06Y-3.8501
X5.06Y-3.9501
X5.06Y-4.0501
X5.1116Y-3.175
X5.285Y-2.935
X5.3084Y-3.175
X5.36Y-3.3501
X5.36Y-3.4501
X5.36Y-3.5501
X5.36Y-3.6501
X5.36Y-3.7501
X5.36Y-3.8501
X5.36Y-3.9501
X5.36Y-4.0501
X5.5935Y-3.5012
X5.7865Y-3.5012
T3
X4.8851Y-2.6651
X4.8851Y-3.8651
X4.8851Y-5.0651
X5.8851Y-2.6651
X5.8851Y-3.8651
X5.8851Y-4.6651
T0
M30
