%TF.GenerationSoftware,KiCad,Pcbnew,(6.0.5)*%
%TF.CreationDate,2022-06-29T09:53:36+09:30*%
%TF.ProjectId,SX-64 8701,53582d36-3420-4383-9730-312e6b696361,rev?*%
%TF.SameCoordinates,Original*%
%TF.FileFunction,Copper,L1,Top*%
%TF.FilePolarity,Positive*%
%FSLAX46Y46*%
G04 Gerber Fmt 4.6, Leading zero omitted, Abs format (unit mm)*
G04 Created by KiCad (PCBNEW (6.0.5)) date 2022-06-29 09:53:36*
%MOMM*%
%LPD*%
G01*
G04 APERTURE LIST*
%TA.AperFunction,ComponentPad*%
%ADD10R,1.600000X1.600000*%
%TD*%
%TA.AperFunction,ComponentPad*%
%ADD11O,1.600000X1.600000*%
%TD*%
%TA.AperFunction,ComponentPad*%
%ADD12C,1.500000*%
%TD*%
%TA.AperFunction,ComponentPad*%
%ADD13C,3.000000*%
%TD*%
%TA.AperFunction,SMDPad,CuDef*%
%ADD14R,0.900000X1.400000*%
%TD*%
%TA.AperFunction,SMDPad,CuDef*%
%ADD15R,1.000000X1.500000*%
%TD*%
%TA.AperFunction,ComponentPad*%
%ADD16C,1.600000*%
%TD*%
%TA.AperFunction,ViaPad*%
%ADD17C,0.600000*%
%TD*%
%TA.AperFunction,Conductor*%
%ADD18C,0.250000*%
%TD*%
G04 APERTURE END LIST*
D10*
%TO.P,U1,1,N/C*%
%TO.N,N/C*%
X128524000Y-85092500D03*
D11*
%TO.P,U1,2,VSS*%
%TO.N,GND*%
X128524000Y-87632500D03*
%TO.P,U1,3,N/C*%
%TO.N,N/C*%
X128524000Y-90172500D03*
%TO.P,U1,4,N/C*%
%TO.N,GND*%
X128524000Y-92712500D03*
%TO.P,U1,5,Reset*%
%TO.N,N/C*%
X128524000Y-95252500D03*
%TO.P,U1,6,PhiDot*%
X128524000Y-97792500D03*
%TO.P,U1,7,PAL/NTSC*%
X128524000Y-100332500D03*
%TO.P,U1,8,PhiColor*%
X128524000Y-102872500D03*
%TO.P,U1,9,VSS*%
%TO.N,GND*%
X136144000Y-102872500D03*
%TO.P,U1,10,N/C*%
%TO.N,N/C*%
X136144000Y-100332500D03*
%TO.P,U1,11,N/C*%
X136144000Y-97792500D03*
%TO.P,U1,12,VDD*%
X136144000Y-95252500D03*
%TO.P,U1,13,XTAL_Out*%
X136144000Y-92712500D03*
%TO.P,U1,14,XTAL_In*%
X136144000Y-90172500D03*
%TO.P,U1,15,VDD*%
X136144000Y-87632500D03*
%TO.P,U1,16,N/C*%
X136144000Y-85092500D03*
%TD*%
D12*
%TO.P,Y1,1,1*%
%TO.N,N/C*%
X146976000Y-88930000D03*
%TO.P,Y1,2,2*%
X142076000Y-88930000D03*
%TD*%
D13*
%TO.P,DotClock,2*%
%TO.N,N/C*%
X149481500Y-98173500D03*
%TD*%
D14*
%TO.P,CT1,1*%
%TO.N,N/C*%
X142576000Y-92710000D03*
%TO.P,CT1,2*%
%TO.N,GND*%
X146476000Y-92710000D03*
%TD*%
D13*
%TO.P,\u00D8Color,6*%
%TO.N,N/C*%
X124081500Y-128653500D03*
%TD*%
%TO.P,\u00D8o,3*%
%TO.N,N/C*%
X149481500Y-67693500D03*
%TD*%
%TO.P,5V,4*%
%TO.N,N/C*%
X124081500Y-67693500D03*
%TD*%
%TO.P,GND,5*%
%TO.N,GND*%
X124081500Y-98173500D03*
%TD*%
D15*
%TO.P,JP1,1*%
%TO.N,N/C*%
X131684000Y-106807000D03*
%TO.P,JP1,2*%
%TO.N,GND*%
X132984000Y-106807000D03*
%TD*%
D16*
%TO.P,C1,1*%
%TO.N,GND*%
X129834000Y-80645000D03*
%TO.P,C1,2*%
%TO.N,N/C*%
X134834000Y-80645000D03*
%TD*%
D13*
%TO.P,GND,1*%
%TO.N,GND*%
X149481500Y-118493500D03*
%TD*%
D16*
%TO.P,L1,1*%
%TO.N,N/C*%
X124079000Y-74549000D03*
D11*
%TO.P,L1,2*%
X134239000Y-74549000D03*
%TD*%
D17*
%TO.N,*%
X140970000Y-92710000D03*
%TD*%
D18*
%TO.N,*%
X131684000Y-106807000D02*
X131684000Y-103492500D01*
X131684000Y-103492500D02*
X128524000Y-100332500D01*
X142576000Y-92710000D02*
X140970000Y-92710000D01*
%TD*%
%TA.AperFunction,Conductor*%
%TO.N,GND*%
G36*
X148578042Y-65682002D02*
G01*
X148624535Y-65735658D01*
X148634639Y-65805932D01*
X148605145Y-65870512D01*
X148568138Y-65899473D01*
X148567530Y-65899732D01*
X148547625Y-65911645D01*
X148336225Y-66038164D01*
X148336221Y-66038167D01*
X148332543Y-66040368D01*
X148118818Y-66211594D01*
X147930308Y-66410242D01*
X147770502Y-66632636D01*
X147642357Y-66874661D01*
X147640885Y-66878684D01*
X147640883Y-66878688D01*
X147633814Y-66898006D01*
X147548243Y-67131837D01*
X147489904Y-67399407D01*
X147468417Y-67672418D01*
X147484182Y-67945820D01*
X147485007Y-67950025D01*
X147485008Y-67950033D01*
X147495627Y-68004157D01*
X147536905Y-68214553D01*
X147538292Y-68218603D01*
X147538293Y-68218608D01*
X147559105Y-68279395D01*
X147625612Y-68473644D01*
X147748660Y-68718299D01*
X147751086Y-68721828D01*
X147751089Y-68721834D01*
X147901343Y-68940453D01*
X147903774Y-68943990D01*
X148088082Y-69146543D01*
X148298175Y-69322207D01*
X148301816Y-69324491D01*
X148526524Y-69465451D01*
X148526528Y-69465453D01*
X148530164Y-69467734D01*
X148598044Y-69498383D01*
X148775845Y-69578664D01*
X148775849Y-69578666D01*
X148779757Y-69580430D01*
X148783877Y-69581650D01*
X148783876Y-69581650D01*
X149038223Y-69656991D01*
X149038227Y-69656992D01*
X149042336Y-69658209D01*
X149046570Y-69658857D01*
X149046575Y-69658858D01*
X149308798Y-69698983D01*
X149308800Y-69698983D01*
X149313040Y-69699632D01*
X149452412Y-69701822D01*
X149582571Y-69703867D01*
X149582577Y-69703867D01*
X149586862Y-69703934D01*
X149858735Y-69671034D01*
X150123627Y-69601541D01*
X150127587Y-69599901D01*
X150127592Y-69599899D01*
X150250131Y-69549141D01*
X150376636Y-69496741D01*
X150613082Y-69358573D01*
X150828589Y-69189594D01*
X150870309Y-69146543D01*
X151016186Y-68996009D01*
X151019169Y-68992931D01*
X151021702Y-68989483D01*
X151021706Y-68989478D01*
X151178757Y-68775678D01*
X151181295Y-68772223D01*
X151276269Y-68597303D01*
X151326352Y-68546981D01*
X151395690Y-68531725D01*
X151462269Y-68556377D01*
X151504951Y-68613112D01*
X151513000Y-68657425D01*
X151513000Y-97211391D01*
X151492998Y-97279512D01*
X151439342Y-97326005D01*
X151369068Y-97336109D01*
X151304488Y-97306615D01*
X151275034Y-97269181D01*
X151205478Y-97134419D01*
X151205478Y-97134418D01*
X151203513Y-97130612D01*
X151193540Y-97116421D01*
X151048508Y-96910062D01*
X151046045Y-96906557D01*
X150859625Y-96705945D01*
X150856310Y-96703231D01*
X150856306Y-96703228D01*
X150651023Y-96535206D01*
X150647705Y-96532490D01*
X150414204Y-96389401D01*
X150410268Y-96387673D01*
X150167373Y-96281049D01*
X150167369Y-96281048D01*
X150163445Y-96279325D01*
X149900066Y-96204300D01*
X149895824Y-96203696D01*
X149895818Y-96203695D01*
X149695334Y-96175162D01*
X149628943Y-96165713D01*
X149485089Y-96164960D01*
X149359377Y-96164302D01*
X149359371Y-96164302D01*
X149355091Y-96164280D01*
X149350847Y-96164839D01*
X149350843Y-96164839D01*
X149231802Y-96180511D01*
X149083578Y-96200025D01*
X149079438Y-96201158D01*
X149079436Y-96201158D01*
X149006508Y-96221109D01*
X148819428Y-96272288D01*
X148815480Y-96273972D01*
X148571482Y-96378046D01*
X148571478Y-96378048D01*
X148567530Y-96379732D01*
X148519788Y-96408305D01*
X148336225Y-96518164D01*
X148336221Y-96518167D01*
X148332543Y-96520368D01*
X148118818Y-96691594D01*
X147930308Y-96890242D01*
X147770502Y-97112636D01*
X147642357Y-97354661D01*
X147640885Y-97358684D01*
X147640883Y-97358688D01*
X147633741Y-97378205D01*
X147548243Y-97611837D01*
X147489904Y-97879407D01*
X147468417Y-98152418D01*
X147484182Y-98425820D01*
X147485007Y-98430025D01*
X147485008Y-98430033D01*
X147506198Y-98538039D01*
X147536905Y-98694553D01*
X147538292Y-98698603D01*
X147538293Y-98698608D01*
X147618321Y-98932349D01*
X147625612Y-98953644D01*
X147667222Y-99036377D01*
X147716480Y-99134315D01*
X147748660Y-99198299D01*
X147751086Y-99201828D01*
X147751089Y-99201834D01*
X147880241Y-99389750D01*
X147903774Y-99423990D01*
X148088082Y-99626543D01*
X148298175Y-99802207D01*
X148301816Y-99804491D01*
X148526524Y-99945451D01*
X148526528Y-99945453D01*
X148530164Y-99947734D01*
X148598044Y-99978383D01*
X148775845Y-100058664D01*
X148775849Y-100058666D01*
X148779757Y-100060430D01*
X148783877Y-100061650D01*
X148783876Y-100061650D01*
X149038223Y-100136991D01*
X149038227Y-100136992D01*
X149042336Y-100138209D01*
X149046570Y-100138857D01*
X149046575Y-100138858D01*
X149308798Y-100178983D01*
X149308800Y-100178983D01*
X149313040Y-100179632D01*
X149452412Y-100181822D01*
X149582571Y-100183867D01*
X149582577Y-100183867D01*
X149586862Y-100183934D01*
X149858735Y-100151034D01*
X150123627Y-100081541D01*
X150127587Y-100079901D01*
X150127592Y-100079899D01*
X150250131Y-100029141D01*
X150376636Y-99976741D01*
X150613082Y-99838573D01*
X150828589Y-99669594D01*
X150870309Y-99626543D01*
X151016186Y-99476009D01*
X151019169Y-99472931D01*
X151021702Y-99469483D01*
X151021706Y-99469478D01*
X151178757Y-99255678D01*
X151181295Y-99252223D01*
X151183488Y-99248185D01*
X151276269Y-99077303D01*
X151326352Y-99026981D01*
X151395690Y-99011725D01*
X151462269Y-99036377D01*
X151504951Y-99093112D01*
X151513000Y-99137425D01*
X151513000Y-117532481D01*
X151492998Y-117600602D01*
X151439342Y-117647095D01*
X151369068Y-117657199D01*
X151304488Y-117627705D01*
X151275034Y-117590270D01*
X151205053Y-117454683D01*
X151200622Y-117447366D01*
X151081531Y-117277917D01*
X151071009Y-117269537D01*
X151057621Y-117276589D01*
X149853522Y-118480688D01*
X149845908Y-118494632D01*
X149846039Y-118496465D01*
X149850290Y-118503080D01*
X151057230Y-119710020D01*
X151069439Y-119716687D01*
X151080939Y-119707997D01*
X151178331Y-119575413D01*
X151182918Y-119568185D01*
X151276269Y-119396255D01*
X151326352Y-119345933D01*
X151395690Y-119330677D01*
X151462269Y-119355329D01*
X151504951Y-119412064D01*
X151513000Y-119456377D01*
X151513000Y-130559000D01*
X151492998Y-130627121D01*
X151439342Y-130673614D01*
X151387000Y-130685000D01*
X125051380Y-130685000D01*
X124983259Y-130664998D01*
X124936766Y-130611342D01*
X124926662Y-130541068D01*
X124956156Y-130476488D01*
X124987809Y-130450212D01*
X125209379Y-130320737D01*
X125209380Y-130320736D01*
X125213082Y-130318573D01*
X125428589Y-130149594D01*
X125470309Y-130106543D01*
X125616186Y-129956009D01*
X125619169Y-129952931D01*
X125621702Y-129949483D01*
X125621706Y-129949478D01*
X125778757Y-129735678D01*
X125781295Y-129732223D01*
X125808654Y-129681834D01*
X125909918Y-129495330D01*
X125909919Y-129495328D01*
X125911968Y-129491554D01*
X126008769Y-129235377D01*
X126069907Y-128968433D01*
X126094251Y-128695661D01*
X126094693Y-128653500D01*
X126076067Y-128380278D01*
X126020532Y-128112112D01*
X125929117Y-127853965D01*
X125803513Y-127610612D01*
X125793540Y-127596421D01*
X125648508Y-127390062D01*
X125646045Y-127386557D01*
X125459625Y-127185945D01*
X125456310Y-127183231D01*
X125456306Y-127183228D01*
X125251023Y-127015206D01*
X125247705Y-127012490D01*
X125014204Y-126869401D01*
X125010268Y-126867673D01*
X124767373Y-126761049D01*
X124767369Y-126761048D01*
X124763445Y-126759325D01*
X124500066Y-126684300D01*
X124495824Y-126683696D01*
X124495818Y-126683695D01*
X124295334Y-126655162D01*
X124228943Y-126645713D01*
X124085089Y-126644960D01*
X123959377Y-126644302D01*
X123959371Y-126644302D01*
X123955091Y-126644280D01*
X123950847Y-126644839D01*
X123950843Y-126644839D01*
X123831802Y-126660511D01*
X123683578Y-126680025D01*
X123679438Y-126681158D01*
X123679436Y-126681158D01*
X123606508Y-126701109D01*
X123419428Y-126752288D01*
X123415480Y-126753972D01*
X123171482Y-126858046D01*
X123171478Y-126858048D01*
X123167530Y-126859732D01*
X123147625Y-126871645D01*
X122936225Y-126998164D01*
X122936221Y-126998167D01*
X122932543Y-127000368D01*
X122718818Y-127171594D01*
X122530308Y-127370242D01*
X122370502Y-127592636D01*
X122368498Y-127596421D01*
X122287355Y-127749674D01*
X122237802Y-127800517D01*
X122168627Y-127816499D01*
X122101794Y-127792545D01*
X122058520Y-127736261D01*
X122050000Y-127690715D01*
X122050000Y-120083154D01*
X148257118Y-120083154D01*
X148264173Y-120093127D01*
X148295179Y-120119051D01*
X148302098Y-120124079D01*
X148526772Y-120265015D01*
X148534307Y-120269056D01*
X148776020Y-120378194D01*
X148784051Y-120381180D01*
X149038332Y-120456502D01*
X149046684Y-120458369D01*
X149308840Y-120498484D01*
X149317374Y-120499200D01*
X149582545Y-120503367D01*
X149591096Y-120502918D01*
X149854383Y-120471057D01*
X149862784Y-120469455D01*
X150119324Y-120402153D01*
X150127426Y-120399426D01*
X150372449Y-120297934D01*
X150380117Y-120294128D01*
X150609098Y-120160322D01*
X150616179Y-120155509D01*
X150696155Y-120092801D01*
X150704625Y-120080942D01*
X150698108Y-120069318D01*
X149494312Y-118865522D01*
X149480368Y-118857908D01*
X149478535Y-118858039D01*
X149471920Y-118862290D01*
X148264410Y-120069800D01*
X148257118Y-120083154D01*
X122050000Y-120083154D01*
X122050000Y-118476704D01*
X147469165Y-118476704D01*
X147484432Y-118741469D01*
X147485505Y-118749970D01*
X147536565Y-119010222D01*
X147538776Y-119018474D01*
X147624684Y-119269394D01*
X147627999Y-119277279D01*
X147747164Y-119514213D01*
X147751520Y-119521579D01*
X147880847Y-119709750D01*
X147891101Y-119718094D01*
X147904842Y-119710948D01*
X149109478Y-118506312D01*
X149117092Y-118492368D01*
X149116961Y-118490535D01*
X149112710Y-118483920D01*
X147905314Y-117276524D01*
X147893304Y-117269966D01*
X147881564Y-117278934D01*
X147773435Y-117429411D01*
X147768918Y-117436696D01*
X147644825Y-117671067D01*
X147641339Y-117678895D01*
X147550200Y-117927946D01*
X147547811Y-117936170D01*
X147491312Y-118195295D01*
X147490063Y-118203750D01*
X147469254Y-118468153D01*
X147469165Y-118476704D01*
X122050000Y-118476704D01*
X122050000Y-116906000D01*
X148258084Y-116906000D01*
X148264480Y-116917270D01*
X149468688Y-118121478D01*
X149482632Y-118129092D01*
X149484465Y-118128961D01*
X149491080Y-118124710D01*
X150698104Y-116917686D01*
X150705295Y-116904517D01*
X150697973Y-116894280D01*
X150650733Y-116855615D01*
X150643761Y-116850660D01*
X150417622Y-116712082D01*
X150410052Y-116708124D01*
X150167204Y-116601522D01*
X150159144Y-116598620D01*
X149904092Y-116525967D01*
X149895714Y-116524185D01*
X149633156Y-116486818D01*
X149624611Y-116486191D01*
X149359408Y-116484802D01*
X149350874Y-116485339D01*
X149087933Y-116519956D01*
X149079535Y-116521649D01*
X148823738Y-116591627D01*
X148815643Y-116594446D01*
X148571699Y-116698497D01*
X148564077Y-116702381D01*
X148336513Y-116838575D01*
X148329481Y-116843462D01*
X148266553Y-116893877D01*
X148258084Y-116906000D01*
X122050000Y-116906000D01*
X122050000Y-102872500D01*
X127210502Y-102872500D01*
X127230457Y-103100587D01*
X127231881Y-103105900D01*
X127231881Y-103105902D01*
X127278897Y-103281365D01*
X127289716Y-103321743D01*
X127292039Y-103326724D01*
X127292039Y-103326725D01*
X127384151Y-103524262D01*
X127384154Y-103524267D01*
X127386477Y-103529249D01*
X127517802Y-103716800D01*
X127679700Y-103878698D01*
X127684208Y-103881855D01*
X127684211Y-103881857D01*
X127762389Y-103936598D01*
X127867251Y-104010023D01*
X127872233Y-104012346D01*
X127872238Y-104012349D01*
X128068765Y-104103990D01*
X128074757Y-104106784D01*
X128080065Y-104108206D01*
X128080067Y-104108207D01*
X128290598Y-104164619D01*
X128290600Y-104164619D01*
X128295913Y-104166043D01*
X128524000Y-104185998D01*
X128752087Y-104166043D01*
X128757400Y-104164619D01*
X128757402Y-104164619D01*
X128967933Y-104108207D01*
X128967935Y-104108206D01*
X128973243Y-104106784D01*
X128979235Y-104103990D01*
X129175762Y-104012349D01*
X129175767Y-104012346D01*
X129180749Y-104010023D01*
X129285611Y-103936598D01*
X129363789Y-103881857D01*
X129363792Y-103881855D01*
X129368300Y-103878698D01*
X129530198Y-103716800D01*
X129661523Y-103529249D01*
X129663846Y-103524267D01*
X129663849Y-103524262D01*
X129755961Y-103326725D01*
X129755961Y-103326724D01*
X129758284Y-103321743D01*
X129769104Y-103281365D01*
X129816119Y-103105902D01*
X129816119Y-103105900D01*
X129817543Y-103100587D01*
X129837498Y-102872500D01*
X129837019Y-102867025D01*
X129837019Y-102867015D01*
X129835974Y-102855072D01*
X129849962Y-102785467D01*
X129899361Y-102734474D01*
X129968486Y-102718283D01*
X130035392Y-102742035D01*
X130050589Y-102754994D01*
X131013595Y-103718000D01*
X131047621Y-103780312D01*
X131050500Y-103807095D01*
X131050500Y-105476618D01*
X131030498Y-105544739D01*
X130976842Y-105591232D01*
X130968731Y-105594599D01*
X130945707Y-105603231D01*
X130945704Y-105603232D01*
X130937295Y-105606385D01*
X130820739Y-105693739D01*
X130733385Y-105810295D01*
X130682255Y-105946684D01*
X130675500Y-106008866D01*
X130675500Y-107605134D01*
X130682255Y-107667316D01*
X130733385Y-107803705D01*
X130820739Y-107920261D01*
X130937295Y-108007615D01*
X131073684Y-108058745D01*
X131135866Y-108065500D01*
X132232134Y-108065500D01*
X132294316Y-108058745D01*
X132301716Y-108055971D01*
X132305942Y-108054966D01*
X132364239Y-108054966D01*
X132381646Y-108059105D01*
X132432514Y-108064631D01*
X132439328Y-108065000D01*
X132711885Y-108065000D01*
X132727124Y-108060525D01*
X132728329Y-108059135D01*
X132730000Y-108051452D01*
X132730000Y-108046884D01*
X133238000Y-108046884D01*
X133242475Y-108062123D01*
X133243865Y-108063328D01*
X133251548Y-108064999D01*
X133528669Y-108064999D01*
X133535490Y-108064629D01*
X133586352Y-108059105D01*
X133601604Y-108055479D01*
X133722054Y-108010324D01*
X133737649Y-108001786D01*
X133839724Y-107925285D01*
X133852285Y-107912724D01*
X133928786Y-107810649D01*
X133937324Y-107795054D01*
X133982478Y-107674606D01*
X133986105Y-107659351D01*
X133991631Y-107608486D01*
X133992000Y-107601672D01*
X133992000Y-107079115D01*
X133987525Y-107063876D01*
X133986135Y-107062671D01*
X133978452Y-107061000D01*
X133256115Y-107061000D01*
X133240876Y-107065475D01*
X133239671Y-107066865D01*
X133238000Y-107074548D01*
X133238000Y-108046884D01*
X132730000Y-108046884D01*
X132730000Y-106534885D01*
X133238000Y-106534885D01*
X133242475Y-106550124D01*
X133243865Y-106551329D01*
X133251548Y-106553000D01*
X133973884Y-106553000D01*
X133989123Y-106548525D01*
X133990328Y-106547135D01*
X133991999Y-106539452D01*
X133991999Y-106012331D01*
X133991629Y-106005510D01*
X133986105Y-105954648D01*
X133982479Y-105939396D01*
X133937324Y-105818946D01*
X133928786Y-105803351D01*
X133852285Y-105701276D01*
X133839724Y-105688715D01*
X133737649Y-105612214D01*
X133722054Y-105603676D01*
X133601606Y-105558522D01*
X133586351Y-105554895D01*
X133535486Y-105549369D01*
X133528672Y-105549000D01*
X133256115Y-105549000D01*
X133240876Y-105553475D01*
X133239671Y-105554865D01*
X133238000Y-105562548D01*
X133238000Y-106534885D01*
X132730000Y-106534885D01*
X132730000Y-105567116D01*
X132725525Y-105551877D01*
X132724135Y-105550672D01*
X132716452Y-105549001D01*
X132443500Y-105549001D01*
X132375379Y-105528999D01*
X132328886Y-105475343D01*
X132317500Y-105423001D01*
X132317500Y-103571267D01*
X132318027Y-103560084D01*
X132319702Y-103552591D01*
X132317562Y-103484500D01*
X132317500Y-103480543D01*
X132317500Y-103452644D01*
X132316996Y-103448653D01*
X132316063Y-103436811D01*
X132314923Y-103400536D01*
X132314674Y-103392611D01*
X132312462Y-103384997D01*
X132312461Y-103384992D01*
X132309023Y-103373159D01*
X132305012Y-103353795D01*
X132303467Y-103341564D01*
X132302474Y-103333703D01*
X132299557Y-103326336D01*
X132299556Y-103326331D01*
X132286198Y-103292592D01*
X132282354Y-103281365D01*
X132272230Y-103246522D01*
X132270018Y-103238907D01*
X132259707Y-103221472D01*
X132251012Y-103203724D01*
X132243552Y-103184883D01*
X132217564Y-103149113D01*
X132211048Y-103139193D01*
X132210947Y-103139022D01*
X134861273Y-103139022D01*
X134908764Y-103316261D01*
X134912510Y-103326553D01*
X135004586Y-103524011D01*
X135010069Y-103533507D01*
X135135028Y-103711967D01*
X135142084Y-103720375D01*
X135296125Y-103874416D01*
X135304533Y-103881472D01*
X135482993Y-104006431D01*
X135492489Y-104011914D01*
X135689947Y-104103990D01*
X135700239Y-104107736D01*
X135872503Y-104153894D01*
X135886599Y-104153558D01*
X135890000Y-104145616D01*
X135890000Y-104140467D01*
X136398000Y-104140467D01*
X136401973Y-104153998D01*
X136410522Y-104155227D01*
X136587761Y-104107736D01*
X136598053Y-104103990D01*
X136795511Y-104011914D01*
X136805007Y-104006431D01*
X136983467Y-103881472D01*
X136991875Y-103874416D01*
X137145916Y-103720375D01*
X137152972Y-103711967D01*
X137277931Y-103533507D01*
X137283414Y-103524011D01*
X137375490Y-103326553D01*
X137379236Y-103316261D01*
X137425394Y-103143997D01*
X137425058Y-103129901D01*
X137417116Y-103126500D01*
X136416115Y-103126500D01*
X136400876Y-103130975D01*
X136399671Y-103132365D01*
X136398000Y-103140048D01*
X136398000Y-104140467D01*
X135890000Y-104140467D01*
X135890000Y-103144615D01*
X135885525Y-103129376D01*
X135884135Y-103128171D01*
X135876452Y-103126500D01*
X134876033Y-103126500D01*
X134862502Y-103130473D01*
X134861273Y-103139022D01*
X132210947Y-103139022D01*
X132192580Y-103107965D01*
X132192578Y-103107962D01*
X132188542Y-103101138D01*
X132174221Y-103086817D01*
X132161380Y-103071783D01*
X132154131Y-103061806D01*
X132149472Y-103055393D01*
X132115395Y-103027202D01*
X132106616Y-103019212D01*
X129833152Y-100745748D01*
X129799126Y-100683436D01*
X129800541Y-100624041D01*
X129816118Y-100565909D01*
X129816120Y-100565898D01*
X129817543Y-100560587D01*
X129837498Y-100332500D01*
X134830502Y-100332500D01*
X134850457Y-100560587D01*
X134851881Y-100565900D01*
X134851881Y-100565902D01*
X134883375Y-100683436D01*
X134909716Y-100781743D01*
X134912039Y-100786724D01*
X134912039Y-100786725D01*
X135004151Y-100984262D01*
X135004154Y-100984267D01*
X135006477Y-100989249D01*
X135137802Y-101176800D01*
X135299700Y-101338698D01*
X135304208Y-101341855D01*
X135304211Y-101341857D01*
X135382389Y-101396598D01*
X135487251Y-101470023D01*
X135492233Y-101472346D01*
X135492238Y-101472349D01*
X135527049Y-101488581D01*
X135580334Y-101535498D01*
X135599795Y-101603775D01*
X135579253Y-101671735D01*
X135527049Y-101716971D01*
X135492489Y-101733086D01*
X135482993Y-101738569D01*
X135304533Y-101863528D01*
X135296125Y-101870584D01*
X135142084Y-102024625D01*
X135135028Y-102033033D01*
X135010069Y-102211493D01*
X135004586Y-102220989D01*
X134912510Y-102418447D01*
X134908764Y-102428739D01*
X134862606Y-102601003D01*
X134862942Y-102615099D01*
X134870884Y-102618500D01*
X137411967Y-102618500D01*
X137425498Y-102614527D01*
X137426727Y-102605978D01*
X137379236Y-102428739D01*
X137375490Y-102418447D01*
X137283414Y-102220989D01*
X137277931Y-102211493D01*
X137152972Y-102033033D01*
X137145916Y-102024625D01*
X136991875Y-101870584D01*
X136983467Y-101863528D01*
X136805007Y-101738569D01*
X136795511Y-101733086D01*
X136760951Y-101716971D01*
X136707666Y-101670054D01*
X136688205Y-101601777D01*
X136708747Y-101533817D01*
X136760951Y-101488581D01*
X136795762Y-101472349D01*
X136795767Y-101472346D01*
X136800749Y-101470023D01*
X136905611Y-101396598D01*
X136983789Y-101341857D01*
X136983792Y-101341855D01*
X136988300Y-101338698D01*
X137150198Y-101176800D01*
X137281523Y-100989249D01*
X137283846Y-100984267D01*
X137283849Y-100984262D01*
X137375961Y-100786725D01*
X137375961Y-100786724D01*
X137378284Y-100781743D01*
X137404626Y-100683436D01*
X137436119Y-100565902D01*
X137436119Y-100565900D01*
X137437543Y-100560587D01*
X137457498Y-100332500D01*
X137437543Y-100104413D01*
X137431706Y-100082630D01*
X137379707Y-99888567D01*
X137379706Y-99888565D01*
X137378284Y-99883257D01*
X137357448Y-99838573D01*
X137283849Y-99680738D01*
X137283846Y-99680733D01*
X137281523Y-99675751D01*
X137150198Y-99488200D01*
X136988300Y-99326302D01*
X136983792Y-99323145D01*
X136983789Y-99323143D01*
X136887060Y-99255413D01*
X136800749Y-99194977D01*
X136795767Y-99192654D01*
X136795762Y-99192651D01*
X136761543Y-99176695D01*
X136708258Y-99129778D01*
X136688797Y-99061501D01*
X136709339Y-98993541D01*
X136761543Y-98948305D01*
X136795762Y-98932349D01*
X136795767Y-98932346D01*
X136800749Y-98930023D01*
X136905611Y-98856598D01*
X136983789Y-98801857D01*
X136983792Y-98801855D01*
X136988300Y-98798698D01*
X137150198Y-98636800D01*
X137281523Y-98449249D01*
X137283846Y-98444267D01*
X137283849Y-98444262D01*
X137375961Y-98246725D01*
X137375961Y-98246724D01*
X137378284Y-98241743D01*
X137396267Y-98174632D01*
X137436119Y-98025902D01*
X137436119Y-98025900D01*
X137437543Y-98020587D01*
X137457498Y-97792500D01*
X137437543Y-97564413D01*
X137436119Y-97559098D01*
X137379707Y-97348567D01*
X137379706Y-97348565D01*
X137378284Y-97343257D01*
X137368179Y-97321587D01*
X137283849Y-97140738D01*
X137283846Y-97140733D01*
X137281523Y-97135751D01*
X137150198Y-96948200D01*
X136988300Y-96786302D01*
X136983792Y-96783145D01*
X136983789Y-96783143D01*
X136878027Y-96709088D01*
X136800749Y-96654977D01*
X136795767Y-96652654D01*
X136795762Y-96652651D01*
X136761543Y-96636695D01*
X136708258Y-96589778D01*
X136688797Y-96521501D01*
X136709339Y-96453541D01*
X136761543Y-96408305D01*
X136795762Y-96392349D01*
X136795767Y-96392346D01*
X136800749Y-96390023D01*
X136969836Y-96271627D01*
X136983789Y-96261857D01*
X136983792Y-96261855D01*
X136988300Y-96258698D01*
X137150198Y-96096800D01*
X137281523Y-95909249D01*
X137283846Y-95904267D01*
X137283849Y-95904262D01*
X137375961Y-95706725D01*
X137375961Y-95706724D01*
X137378284Y-95701743D01*
X137437543Y-95480587D01*
X137457498Y-95252500D01*
X137437543Y-95024413D01*
X137378284Y-94803257D01*
X137375961Y-94798275D01*
X137283849Y-94600738D01*
X137283846Y-94600733D01*
X137281523Y-94595751D01*
X137150198Y-94408200D01*
X136988300Y-94246302D01*
X136983792Y-94243145D01*
X136983789Y-94243143D01*
X136905611Y-94188402D01*
X136800749Y-94114977D01*
X136795767Y-94112654D01*
X136795762Y-94112651D01*
X136761543Y-94096695D01*
X136708258Y-94049778D01*
X136688797Y-93981501D01*
X136709339Y-93913541D01*
X136761543Y-93868305D01*
X136795762Y-93852349D01*
X136795767Y-93852346D01*
X136800749Y-93850023D01*
X136921140Y-93765724D01*
X136983789Y-93721857D01*
X136983792Y-93721855D01*
X136988300Y-93718698D01*
X137150198Y-93556800D01*
X137170642Y-93527604D01*
X137224317Y-93450947D01*
X137281523Y-93369249D01*
X137283846Y-93364267D01*
X137283849Y-93364262D01*
X137375961Y-93166725D01*
X137375961Y-93166724D01*
X137378284Y-93161743D01*
X137406271Y-93057297D01*
X137436119Y-92945902D01*
X137436119Y-92945900D01*
X137437543Y-92940587D01*
X137457498Y-92712500D01*
X137456285Y-92698640D01*
X140156463Y-92698640D01*
X140174163Y-92879160D01*
X140231418Y-93051273D01*
X140235065Y-93057295D01*
X140235066Y-93057297D01*
X140301338Y-93166725D01*
X140325380Y-93206424D01*
X140451382Y-93336902D01*
X140603159Y-93436222D01*
X140609763Y-93438678D01*
X140609765Y-93438679D01*
X140766558Y-93496990D01*
X140766560Y-93496990D01*
X140773168Y-93499448D01*
X140856995Y-93510633D01*
X140945980Y-93522507D01*
X140945984Y-93522507D01*
X140952961Y-93523438D01*
X140959972Y-93522800D01*
X140959976Y-93522800D01*
X141102459Y-93509832D01*
X141133600Y-93506998D01*
X141140302Y-93504820D01*
X141140304Y-93504820D01*
X141299409Y-93453124D01*
X141299412Y-93453123D01*
X141306108Y-93450947D01*
X141429245Y-93377542D01*
X141497998Y-93359843D01*
X141565408Y-93382125D01*
X141610070Y-93437314D01*
X141619024Y-93472164D01*
X141624255Y-93520316D01*
X141675385Y-93656705D01*
X141762739Y-93773261D01*
X141879295Y-93860615D01*
X142015684Y-93911745D01*
X142077866Y-93918500D01*
X143074134Y-93918500D01*
X143136316Y-93911745D01*
X143272705Y-93860615D01*
X143389261Y-93773261D01*
X143476615Y-93656705D01*
X143527745Y-93520316D01*
X143534500Y-93458134D01*
X143534500Y-93454669D01*
X145518001Y-93454669D01*
X145518371Y-93461490D01*
X145523895Y-93512352D01*
X145527521Y-93527604D01*
X145572676Y-93648054D01*
X145581214Y-93663649D01*
X145657715Y-93765724D01*
X145670276Y-93778285D01*
X145772351Y-93854786D01*
X145787946Y-93863324D01*
X145908394Y-93908478D01*
X145923649Y-93912105D01*
X145974514Y-93917631D01*
X145981328Y-93918000D01*
X146203885Y-93918000D01*
X146219124Y-93913525D01*
X146220329Y-93912135D01*
X146222000Y-93904452D01*
X146222000Y-93899884D01*
X146730000Y-93899884D01*
X146734475Y-93915123D01*
X146735865Y-93916328D01*
X146743548Y-93917999D01*
X146970669Y-93917999D01*
X146977490Y-93917629D01*
X147028352Y-93912105D01*
X147043604Y-93908479D01*
X147164054Y-93863324D01*
X147179649Y-93854786D01*
X147281724Y-93778285D01*
X147294285Y-93765724D01*
X147370786Y-93663649D01*
X147379324Y-93648054D01*
X147424478Y-93527606D01*
X147428105Y-93512351D01*
X147433631Y-93461486D01*
X147434000Y-93454672D01*
X147434000Y-92982115D01*
X147429525Y-92966876D01*
X147428135Y-92965671D01*
X147420452Y-92964000D01*
X146748115Y-92964000D01*
X146732876Y-92968475D01*
X146731671Y-92969865D01*
X146730000Y-92977548D01*
X146730000Y-93899884D01*
X146222000Y-93899884D01*
X146222000Y-92982115D01*
X146217525Y-92966876D01*
X146216135Y-92965671D01*
X146208452Y-92964000D01*
X145536116Y-92964000D01*
X145520877Y-92968475D01*
X145519672Y-92969865D01*
X145518001Y-92977548D01*
X145518001Y-93454669D01*
X143534500Y-93454669D01*
X143534500Y-92437885D01*
X145518000Y-92437885D01*
X145522475Y-92453124D01*
X145523865Y-92454329D01*
X145531548Y-92456000D01*
X146203885Y-92456000D01*
X146219124Y-92451525D01*
X146220329Y-92450135D01*
X146222000Y-92442452D01*
X146222000Y-92437885D01*
X146730000Y-92437885D01*
X146734475Y-92453124D01*
X146735865Y-92454329D01*
X146743548Y-92456000D01*
X147415884Y-92456000D01*
X147431123Y-92451525D01*
X147432328Y-92450135D01*
X147433999Y-92442452D01*
X147433999Y-91965331D01*
X147433629Y-91958510D01*
X147428105Y-91907648D01*
X147424479Y-91892396D01*
X147379324Y-91771946D01*
X147370786Y-91756351D01*
X147294285Y-91654276D01*
X147281724Y-91641715D01*
X147179649Y-91565214D01*
X147164054Y-91556676D01*
X147043606Y-91511522D01*
X147028351Y-91507895D01*
X146977486Y-91502369D01*
X146970672Y-91502000D01*
X146748115Y-91502000D01*
X146732876Y-91506475D01*
X146731671Y-91507865D01*
X146730000Y-91515548D01*
X146730000Y-92437885D01*
X146222000Y-92437885D01*
X146222000Y-91520116D01*
X146217525Y-91504877D01*
X146216135Y-91503672D01*
X146208452Y-91502001D01*
X145981331Y-91502001D01*
X145974510Y-91502371D01*
X145923648Y-91507895D01*
X145908396Y-91511521D01*
X145787946Y-91556676D01*
X145772351Y-91565214D01*
X145670276Y-91641715D01*
X145657715Y-91654276D01*
X145581214Y-91756351D01*
X145572676Y-91771946D01*
X145527522Y-91892394D01*
X145523895Y-91907649D01*
X145518369Y-91958514D01*
X145518000Y-91965328D01*
X145518000Y-92437885D01*
X143534500Y-92437885D01*
X143534500Y-91961866D01*
X143527745Y-91899684D01*
X143476615Y-91763295D01*
X143389261Y-91646739D01*
X143272705Y-91559385D01*
X143136316Y-91508255D01*
X143074134Y-91501500D01*
X142077866Y-91501500D01*
X142015684Y-91508255D01*
X141879295Y-91559385D01*
X141762739Y-91646739D01*
X141675385Y-91763295D01*
X141624255Y-91899684D01*
X141622022Y-91920243D01*
X141618891Y-91949061D01*
X141591649Y-92014623D01*
X141533286Y-92055049D01*
X141462332Y-92057504D01*
X141426117Y-92041840D01*
X141326666Y-91978727D01*
X141269775Y-91958469D01*
X141162425Y-91920243D01*
X141162420Y-91920242D01*
X141155790Y-91917881D01*
X141148802Y-91917048D01*
X141148799Y-91917047D01*
X141025698Y-91902368D01*
X140975680Y-91896404D01*
X140968677Y-91897140D01*
X140968676Y-91897140D01*
X140802288Y-91914628D01*
X140802286Y-91914629D01*
X140795288Y-91915364D01*
X140623579Y-91973818D01*
X140561109Y-92012250D01*
X140475095Y-92065166D01*
X140475092Y-92065168D01*
X140469088Y-92068862D01*
X140464053Y-92073793D01*
X140464050Y-92073795D01*
X140461288Y-92076500D01*
X140339493Y-92195771D01*
X140241235Y-92348238D01*
X140238826Y-92354858D01*
X140238824Y-92354861D01*
X140191671Y-92484413D01*
X140179197Y-92518685D01*
X140156463Y-92698640D01*
X137456285Y-92698640D01*
X137437543Y-92484413D01*
X137425076Y-92437885D01*
X137379707Y-92268567D01*
X137379706Y-92268565D01*
X137378284Y-92263257D01*
X137375961Y-92258275D01*
X137283849Y-92060738D01*
X137283846Y-92060733D01*
X137281523Y-92055751D01*
X137184985Y-91917881D01*
X137153357Y-91872711D01*
X137153355Y-91872708D01*
X137150198Y-91868200D01*
X136988300Y-91706302D01*
X136983792Y-91703145D01*
X136983789Y-91703143D01*
X136895551Y-91641358D01*
X136800749Y-91574977D01*
X136795767Y-91572654D01*
X136795762Y-91572651D01*
X136761543Y-91556695D01*
X136708258Y-91509778D01*
X136688797Y-91441501D01*
X136709339Y-91373541D01*
X136761543Y-91328305D01*
X136795762Y-91312349D01*
X136795767Y-91312346D01*
X136800749Y-91310023D01*
X136905611Y-91236598D01*
X136983789Y-91181857D01*
X136983792Y-91181855D01*
X136988300Y-91178698D01*
X137150198Y-91016800D01*
X137281523Y-90829249D01*
X137283846Y-90824267D01*
X137283849Y-90824262D01*
X137375961Y-90626725D01*
X137375961Y-90626724D01*
X137378284Y-90621743D01*
X137437543Y-90400587D01*
X137457498Y-90172500D01*
X137437543Y-89944413D01*
X137384361Y-89745935D01*
X137379707Y-89728567D01*
X137379706Y-89728565D01*
X137378284Y-89723257D01*
X137305030Y-89566162D01*
X137283849Y-89520738D01*
X137283846Y-89520733D01*
X137281523Y-89515751D01*
X137177409Y-89367061D01*
X137153357Y-89332711D01*
X137153355Y-89332708D01*
X137150198Y-89328200D01*
X136988300Y-89166302D01*
X136983792Y-89163145D01*
X136983789Y-89163143D01*
X136905611Y-89108402D01*
X136800749Y-89034977D01*
X136795767Y-89032654D01*
X136795762Y-89032651D01*
X136761543Y-89016695D01*
X136708258Y-88969778D01*
X136696920Y-88930000D01*
X140812693Y-88930000D01*
X140831885Y-89149371D01*
X140888880Y-89362076D01*
X140891205Y-89367061D01*
X140979618Y-89556666D01*
X140979621Y-89556671D01*
X140981944Y-89561653D01*
X141108251Y-89742038D01*
X141263962Y-89897749D01*
X141444346Y-90024056D01*
X141643924Y-90117120D01*
X141856629Y-90174115D01*
X142076000Y-90193307D01*
X142295371Y-90174115D01*
X142508076Y-90117120D01*
X142707654Y-90024056D01*
X142888038Y-89897749D01*
X143043749Y-89742038D01*
X143170056Y-89561653D01*
X143172379Y-89556671D01*
X143172382Y-89556666D01*
X143260795Y-89367061D01*
X143263120Y-89362076D01*
X143320115Y-89149371D01*
X143339307Y-88930000D01*
X145712693Y-88930000D01*
X145731885Y-89149371D01*
X145788880Y-89362076D01*
X145791205Y-89367061D01*
X145879618Y-89556666D01*
X145879621Y-89556671D01*
X145881944Y-89561653D01*
X146008251Y-89742038D01*
X146163962Y-89897749D01*
X146344346Y-90024056D01*
X146543924Y-90117120D01*
X146756629Y-90174115D01*
X146976000Y-90193307D01*
X147195371Y-90174115D01*
X147408076Y-90117120D01*
X147607654Y-90024056D01*
X147788038Y-89897749D01*
X147943749Y-89742038D01*
X148070056Y-89561653D01*
X148072379Y-89556671D01*
X148072382Y-89556666D01*
X148160795Y-89367061D01*
X148163120Y-89362076D01*
X148220115Y-89149371D01*
X148239307Y-88930000D01*
X148220115Y-88710629D01*
X148163120Y-88497924D01*
X148119585Y-88404562D01*
X148072382Y-88303334D01*
X148072379Y-88303329D01*
X148070056Y-88298347D01*
X147943749Y-88117962D01*
X147788038Y-87962251D01*
X147607654Y-87835944D01*
X147408076Y-87742880D01*
X147195371Y-87685885D01*
X146976000Y-87666693D01*
X146756629Y-87685885D01*
X146543924Y-87742880D01*
X146450562Y-87786415D01*
X146349334Y-87833618D01*
X146349329Y-87833621D01*
X146344347Y-87835944D01*
X146339840Y-87839100D01*
X146339838Y-87839101D01*
X146168473Y-87959092D01*
X146168470Y-87959094D01*
X146163962Y-87962251D01*
X146008251Y-88117962D01*
X145881944Y-88298347D01*
X145879621Y-88303329D01*
X145879618Y-88303334D01*
X145832415Y-88404562D01*
X145788880Y-88497924D01*
X145731885Y-88710629D01*
X145712693Y-88930000D01*
X143339307Y-88930000D01*
X143320115Y-88710629D01*
X143263120Y-88497924D01*
X143219585Y-88404562D01*
X143172382Y-88303334D01*
X143172379Y-88303329D01*
X143170056Y-88298347D01*
X143043749Y-88117962D01*
X142888038Y-87962251D01*
X142707654Y-87835944D01*
X142508076Y-87742880D01*
X142295371Y-87685885D01*
X142076000Y-87666693D01*
X141856629Y-87685885D01*
X141643924Y-87742880D01*
X141550562Y-87786415D01*
X141449334Y-87833618D01*
X141449329Y-87833621D01*
X141444347Y-87835944D01*
X141439840Y-87839100D01*
X141439838Y-87839101D01*
X141268473Y-87959092D01*
X141268470Y-87959094D01*
X141263962Y-87962251D01*
X141108251Y-88117962D01*
X140981944Y-88298347D01*
X140979621Y-88303329D01*
X140979618Y-88303334D01*
X140932415Y-88404562D01*
X140888880Y-88497924D01*
X140831885Y-88710629D01*
X140812693Y-88930000D01*
X136696920Y-88930000D01*
X136688797Y-88901501D01*
X136709339Y-88833541D01*
X136761543Y-88788305D01*
X136795762Y-88772349D01*
X136795767Y-88772346D01*
X136800749Y-88770023D01*
X136905611Y-88696598D01*
X136983789Y-88641857D01*
X136983792Y-88641855D01*
X136988300Y-88638698D01*
X137150198Y-88476800D01*
X137281523Y-88289249D01*
X137283846Y-88284267D01*
X137283849Y-88284262D01*
X137375961Y-88086725D01*
X137375961Y-88086724D01*
X137378284Y-88081743D01*
X137411149Y-87959092D01*
X137436119Y-87865902D01*
X137436119Y-87865900D01*
X137437543Y-87860587D01*
X137457498Y-87632500D01*
X137437543Y-87404413D01*
X137378284Y-87183257D01*
X137283966Y-86980989D01*
X137283849Y-86980738D01*
X137283846Y-86980733D01*
X137281523Y-86975751D01*
X137150198Y-86788200D01*
X136988300Y-86626302D01*
X136983792Y-86623145D01*
X136983789Y-86623143D01*
X136882262Y-86552053D01*
X136800749Y-86494977D01*
X136795767Y-86492654D01*
X136795762Y-86492651D01*
X136761543Y-86476695D01*
X136708258Y-86429778D01*
X136688797Y-86361501D01*
X136709339Y-86293541D01*
X136761543Y-86248305D01*
X136795762Y-86232349D01*
X136795767Y-86232346D01*
X136800749Y-86230023D01*
X136942458Y-86130797D01*
X136983789Y-86101857D01*
X136983792Y-86101855D01*
X136988300Y-86098698D01*
X137150198Y-85936800D01*
X137281523Y-85749249D01*
X137283846Y-85744267D01*
X137283849Y-85744262D01*
X137375961Y-85546725D01*
X137375961Y-85546724D01*
X137378284Y-85541743D01*
X137437543Y-85320587D01*
X137457498Y-85092500D01*
X137437543Y-84864413D01*
X137378284Y-84643257D01*
X137375961Y-84638275D01*
X137283849Y-84440738D01*
X137283846Y-84440733D01*
X137281523Y-84435751D01*
X137150198Y-84248200D01*
X136988300Y-84086302D01*
X136983792Y-84083145D01*
X136983789Y-84083143D01*
X136905611Y-84028402D01*
X136800749Y-83954977D01*
X136795767Y-83952654D01*
X136795762Y-83952651D01*
X136598225Y-83860539D01*
X136598224Y-83860539D01*
X136593243Y-83858216D01*
X136587935Y-83856794D01*
X136587933Y-83856793D01*
X136377402Y-83800381D01*
X136377400Y-83800381D01*
X136372087Y-83798957D01*
X136144000Y-83779002D01*
X135915913Y-83798957D01*
X135910600Y-83800381D01*
X135910598Y-83800381D01*
X135700067Y-83856793D01*
X135700065Y-83856794D01*
X135694757Y-83858216D01*
X135689776Y-83860539D01*
X135689775Y-83860539D01*
X135492238Y-83952651D01*
X135492233Y-83952654D01*
X135487251Y-83954977D01*
X135382389Y-84028402D01*
X135304211Y-84083143D01*
X135304208Y-84083145D01*
X135299700Y-84086302D01*
X135137802Y-84248200D01*
X135006477Y-84435751D01*
X135004154Y-84440733D01*
X135004151Y-84440738D01*
X134912039Y-84638275D01*
X134909716Y-84643257D01*
X134850457Y-84864413D01*
X134830502Y-85092500D01*
X134850457Y-85320587D01*
X134909716Y-85541743D01*
X134912039Y-85546724D01*
X134912039Y-85546725D01*
X135004151Y-85744262D01*
X135004154Y-85744267D01*
X135006477Y-85749249D01*
X135137802Y-85936800D01*
X135299700Y-86098698D01*
X135304208Y-86101855D01*
X135304211Y-86101857D01*
X135345542Y-86130797D01*
X135487251Y-86230023D01*
X135492233Y-86232346D01*
X135492238Y-86232349D01*
X135526457Y-86248305D01*
X135579742Y-86295222D01*
X135599203Y-86363499D01*
X135578661Y-86431459D01*
X135526457Y-86476695D01*
X135492238Y-86492651D01*
X135492233Y-86492654D01*
X135487251Y-86494977D01*
X135405738Y-86552053D01*
X135304211Y-86623143D01*
X135304208Y-86623145D01*
X135299700Y-86626302D01*
X135137802Y-86788200D01*
X135006477Y-86975751D01*
X135004154Y-86980733D01*
X135004151Y-86980738D01*
X135004034Y-86980989D01*
X134909716Y-87183257D01*
X134850457Y-87404413D01*
X134830502Y-87632500D01*
X134850457Y-87860587D01*
X134851881Y-87865900D01*
X134851881Y-87865902D01*
X134876852Y-87959092D01*
X134909716Y-88081743D01*
X134912039Y-88086724D01*
X134912039Y-88086725D01*
X135004151Y-88284262D01*
X135004154Y-88284267D01*
X135006477Y-88289249D01*
X135137802Y-88476800D01*
X135299700Y-88638698D01*
X135304208Y-88641855D01*
X135304211Y-88641857D01*
X135382389Y-88696598D01*
X135487251Y-88770023D01*
X135492233Y-88772346D01*
X135492238Y-88772349D01*
X135526457Y-88788305D01*
X135579742Y-88835222D01*
X135599203Y-88903499D01*
X135578661Y-88971459D01*
X135526457Y-89016695D01*
X135492238Y-89032651D01*
X135492233Y-89032654D01*
X135487251Y-89034977D01*
X135382389Y-89108402D01*
X135304211Y-89163143D01*
X135304208Y-89163145D01*
X135299700Y-89166302D01*
X135137802Y-89328200D01*
X135134645Y-89332708D01*
X135134643Y-89332711D01*
X135110591Y-89367061D01*
X135006477Y-89515751D01*
X135004154Y-89520733D01*
X135004151Y-89520738D01*
X134982970Y-89566162D01*
X134909716Y-89723257D01*
X134908294Y-89728565D01*
X134908293Y-89728567D01*
X134903639Y-89745935D01*
X134850457Y-89944413D01*
X134830502Y-90172500D01*
X134850457Y-90400587D01*
X134909716Y-90621743D01*
X134912039Y-90626724D01*
X134912039Y-90626725D01*
X135004151Y-90824262D01*
X135004154Y-90824267D01*
X135006477Y-90829249D01*
X135137802Y-91016800D01*
X135299700Y-91178698D01*
X135304208Y-91181855D01*
X135304211Y-91181857D01*
X135382389Y-91236598D01*
X135487251Y-91310023D01*
X135492233Y-91312346D01*
X135492238Y-91312349D01*
X135526457Y-91328305D01*
X135579742Y-91375222D01*
X135599203Y-91443499D01*
X135578661Y-91511459D01*
X135526457Y-91556695D01*
X135492238Y-91572651D01*
X135492233Y-91572654D01*
X135487251Y-91574977D01*
X135392449Y-91641358D01*
X135304211Y-91703143D01*
X135304208Y-91703145D01*
X135299700Y-91706302D01*
X135137802Y-91868200D01*
X135134645Y-91872708D01*
X135134643Y-91872711D01*
X135103015Y-91917881D01*
X135006477Y-92055751D01*
X135004154Y-92060733D01*
X135004151Y-92060738D01*
X134912039Y-92258275D01*
X134909716Y-92263257D01*
X134908294Y-92268565D01*
X134908293Y-92268567D01*
X134862924Y-92437885D01*
X134850457Y-92484413D01*
X134830502Y-92712500D01*
X134850457Y-92940587D01*
X134851881Y-92945900D01*
X134851881Y-92945902D01*
X134881730Y-93057297D01*
X134909716Y-93161743D01*
X134912039Y-93166724D01*
X134912039Y-93166725D01*
X135004151Y-93364262D01*
X135004154Y-93364267D01*
X135006477Y-93369249D01*
X135063683Y-93450947D01*
X135117359Y-93527604D01*
X135137802Y-93556800D01*
X135299700Y-93718698D01*
X135304208Y-93721855D01*
X135304211Y-93721857D01*
X135366860Y-93765724D01*
X135487251Y-93850023D01*
X135492233Y-93852346D01*
X135492238Y-93852349D01*
X135526457Y-93868305D01*
X135579742Y-93915222D01*
X135599203Y-93983499D01*
X135578661Y-94051459D01*
X135526457Y-94096695D01*
X135492238Y-94112651D01*
X135492233Y-94112654D01*
X135487251Y-94114977D01*
X135382389Y-94188402D01*
X135304211Y-94243143D01*
X135304208Y-94243145D01*
X135299700Y-94246302D01*
X135137802Y-94408200D01*
X135006477Y-94595751D01*
X135004154Y-94600733D01*
X135004151Y-94600738D01*
X134912039Y-94798275D01*
X134909716Y-94803257D01*
X134850457Y-95024413D01*
X134830502Y-95252500D01*
X134850457Y-95480587D01*
X134909716Y-95701743D01*
X134912039Y-95706724D01*
X134912039Y-95706725D01*
X135004151Y-95904262D01*
X135004154Y-95904267D01*
X135006477Y-95909249D01*
X135137802Y-96096800D01*
X135299700Y-96258698D01*
X135304208Y-96261855D01*
X135304211Y-96261857D01*
X135318164Y-96271627D01*
X135487251Y-96390023D01*
X135492233Y-96392346D01*
X135492238Y-96392349D01*
X135526457Y-96408305D01*
X135579742Y-96455222D01*
X135599203Y-96523499D01*
X135578661Y-96591459D01*
X135526457Y-96636695D01*
X135492238Y-96652651D01*
X135492233Y-96652654D01*
X135487251Y-96654977D01*
X135409973Y-96709088D01*
X135304211Y-96783143D01*
X135304208Y-96783145D01*
X135299700Y-96786302D01*
X135137802Y-96948200D01*
X135006477Y-97135751D01*
X135004154Y-97140733D01*
X135004151Y-97140738D01*
X134919821Y-97321587D01*
X134909716Y-97343257D01*
X134908294Y-97348565D01*
X134908293Y-97348567D01*
X134851881Y-97559098D01*
X134850457Y-97564413D01*
X134830502Y-97792500D01*
X134850457Y-98020587D01*
X134851881Y-98025900D01*
X134851881Y-98025902D01*
X134891734Y-98174632D01*
X134909716Y-98241743D01*
X134912039Y-98246724D01*
X134912039Y-98246725D01*
X135004151Y-98444262D01*
X135004154Y-98444267D01*
X135006477Y-98449249D01*
X135137802Y-98636800D01*
X135299700Y-98798698D01*
X135304208Y-98801855D01*
X135304211Y-98801857D01*
X135382389Y-98856598D01*
X135487251Y-98930023D01*
X135492233Y-98932346D01*
X135492238Y-98932349D01*
X135526457Y-98948305D01*
X135579742Y-98995222D01*
X135599203Y-99063499D01*
X135578661Y-99131459D01*
X135526457Y-99176695D01*
X135492238Y-99192651D01*
X135492233Y-99192654D01*
X135487251Y-99194977D01*
X135400940Y-99255413D01*
X135304211Y-99323143D01*
X135304208Y-99323145D01*
X135299700Y-99326302D01*
X135137802Y-99488200D01*
X135006477Y-99675751D01*
X135004154Y-99680733D01*
X135004151Y-99680738D01*
X134930552Y-99838573D01*
X134909716Y-99883257D01*
X134908294Y-99888565D01*
X134908293Y-99888567D01*
X134856294Y-100082630D01*
X134850457Y-100104413D01*
X134830502Y-100332500D01*
X129837498Y-100332500D01*
X129817543Y-100104413D01*
X129811706Y-100082630D01*
X129759707Y-99888567D01*
X129759706Y-99888565D01*
X129758284Y-99883257D01*
X129737448Y-99838573D01*
X129663849Y-99680738D01*
X129663846Y-99680733D01*
X129661523Y-99675751D01*
X129530198Y-99488200D01*
X129368300Y-99326302D01*
X129363792Y-99323145D01*
X129363789Y-99323143D01*
X129267060Y-99255413D01*
X129180749Y-99194977D01*
X129175767Y-99192654D01*
X129175762Y-99192651D01*
X129141543Y-99176695D01*
X129088258Y-99129778D01*
X129068797Y-99061501D01*
X129089339Y-98993541D01*
X129141543Y-98948305D01*
X129175762Y-98932349D01*
X129175767Y-98932346D01*
X129180749Y-98930023D01*
X129285611Y-98856598D01*
X129363789Y-98801857D01*
X129363792Y-98801855D01*
X129368300Y-98798698D01*
X129530198Y-98636800D01*
X129661523Y-98449249D01*
X129663846Y-98444267D01*
X129663849Y-98444262D01*
X129755961Y-98246725D01*
X129755961Y-98246724D01*
X129758284Y-98241743D01*
X129776267Y-98174632D01*
X129816119Y-98025902D01*
X129816119Y-98025900D01*
X129817543Y-98020587D01*
X129837498Y-97792500D01*
X129817543Y-97564413D01*
X129816119Y-97559098D01*
X129759707Y-97348567D01*
X129759706Y-97348565D01*
X129758284Y-97343257D01*
X129748179Y-97321587D01*
X129663849Y-97140738D01*
X129663846Y-97140733D01*
X129661523Y-97135751D01*
X129530198Y-96948200D01*
X129368300Y-96786302D01*
X129363792Y-96783145D01*
X129363789Y-96783143D01*
X129258027Y-96709088D01*
X129180749Y-96654977D01*
X129175767Y-96652654D01*
X129175762Y-96652651D01*
X129141543Y-96636695D01*
X129088258Y-96589778D01*
X129068797Y-96521501D01*
X129089339Y-96453541D01*
X129141543Y-96408305D01*
X129175762Y-96392349D01*
X129175767Y-96392346D01*
X129180749Y-96390023D01*
X129349836Y-96271627D01*
X129363789Y-96261857D01*
X129363792Y-96261855D01*
X129368300Y-96258698D01*
X129530198Y-96096800D01*
X129661523Y-95909249D01*
X129663846Y-95904267D01*
X129663849Y-95904262D01*
X129755961Y-95706725D01*
X129755961Y-95706724D01*
X129758284Y-95701743D01*
X129817543Y-95480587D01*
X129837498Y-95252500D01*
X129817543Y-95024413D01*
X129758284Y-94803257D01*
X129755961Y-94798275D01*
X129663849Y-94600738D01*
X129663846Y-94600733D01*
X129661523Y-94595751D01*
X129530198Y-94408200D01*
X129368300Y-94246302D01*
X129363792Y-94243145D01*
X129363789Y-94243143D01*
X129285611Y-94188402D01*
X129180749Y-94114977D01*
X129175767Y-94112654D01*
X129175762Y-94112651D01*
X129140951Y-94096419D01*
X129087666Y-94049502D01*
X129068205Y-93981225D01*
X129088747Y-93913265D01*
X129140951Y-93868029D01*
X129175511Y-93851914D01*
X129185007Y-93846431D01*
X129363467Y-93721472D01*
X129371875Y-93714416D01*
X129525916Y-93560375D01*
X129532972Y-93551967D01*
X129657931Y-93373507D01*
X129663414Y-93364011D01*
X129755490Y-93166553D01*
X129759236Y-93156261D01*
X129805394Y-92983997D01*
X129805058Y-92969901D01*
X129797116Y-92966500D01*
X127256033Y-92966500D01*
X127242502Y-92970473D01*
X127241273Y-92979022D01*
X127288764Y-93156261D01*
X127292510Y-93166553D01*
X127384586Y-93364011D01*
X127390069Y-93373507D01*
X127515028Y-93551967D01*
X127522084Y-93560375D01*
X127676125Y-93714416D01*
X127684533Y-93721472D01*
X127862993Y-93846431D01*
X127872489Y-93851914D01*
X127907049Y-93868029D01*
X127960334Y-93914946D01*
X127979795Y-93983223D01*
X127959253Y-94051183D01*
X127907049Y-94096419D01*
X127872238Y-94112651D01*
X127872233Y-94112654D01*
X127867251Y-94114977D01*
X127762389Y-94188402D01*
X127684211Y-94243143D01*
X127684208Y-94243145D01*
X127679700Y-94246302D01*
X127517802Y-94408200D01*
X127386477Y-94595751D01*
X127384154Y-94600733D01*
X127384151Y-94600738D01*
X127292039Y-94798275D01*
X127289716Y-94803257D01*
X127230457Y-95024413D01*
X127210502Y-95252500D01*
X127230457Y-95480587D01*
X127289716Y-95701743D01*
X127292039Y-95706724D01*
X127292039Y-95706725D01*
X127384151Y-95904262D01*
X127384154Y-95904267D01*
X127386477Y-95909249D01*
X127517802Y-96096800D01*
X127679700Y-96258698D01*
X127684208Y-96261855D01*
X127684211Y-96261857D01*
X127698164Y-96271627D01*
X127867251Y-96390023D01*
X127872233Y-96392346D01*
X127872238Y-96392349D01*
X127906457Y-96408305D01*
X127959742Y-96455222D01*
X127979203Y-96523499D01*
X127958661Y-96591459D01*
X127906457Y-96636695D01*
X127872238Y-96652651D01*
X127872233Y-96652654D01*
X127867251Y-96654977D01*
X127789973Y-96709088D01*
X127684211Y-96783143D01*
X127684208Y-96783145D01*
X127679700Y-96786302D01*
X127517802Y-96948200D01*
X127386477Y-97135751D01*
X127384154Y-97140733D01*
X127384151Y-97140738D01*
X127299821Y-97321587D01*
X127289716Y-97343257D01*
X127288294Y-97348565D01*
X127288293Y-97348567D01*
X127231881Y-97559098D01*
X127230457Y-97564413D01*
X127210502Y-97792500D01*
X127230457Y-98020587D01*
X127231881Y-98025900D01*
X127231881Y-98025902D01*
X127271734Y-98174632D01*
X127289716Y-98241743D01*
X127292039Y-98246724D01*
X127292039Y-98246725D01*
X127384151Y-98444262D01*
X127384154Y-98444267D01*
X127386477Y-98449249D01*
X127517802Y-98636800D01*
X127679700Y-98798698D01*
X127684208Y-98801855D01*
X127684211Y-98801857D01*
X127762389Y-98856598D01*
X127867251Y-98930023D01*
X127872233Y-98932346D01*
X127872238Y-98932349D01*
X127906457Y-98948305D01*
X127959742Y-98995222D01*
X127979203Y-99063499D01*
X127958661Y-99131459D01*
X127906457Y-99176695D01*
X127872238Y-99192651D01*
X127872233Y-99192654D01*
X127867251Y-99194977D01*
X127780940Y-99255413D01*
X127684211Y-99323143D01*
X127684208Y-99323145D01*
X127679700Y-99326302D01*
X127517802Y-99488200D01*
X127386477Y-99675751D01*
X127384154Y-99680733D01*
X127384151Y-99680738D01*
X127310552Y-99838573D01*
X127289716Y-99883257D01*
X127288294Y-99888565D01*
X127288293Y-99888567D01*
X127236294Y-100082630D01*
X127230457Y-100104413D01*
X127210502Y-100332500D01*
X127230457Y-100560587D01*
X127231881Y-100565900D01*
X127231881Y-100565902D01*
X127263375Y-100683436D01*
X127289716Y-100781743D01*
X127292039Y-100786724D01*
X127292039Y-100786725D01*
X127384151Y-100984262D01*
X127384154Y-100984267D01*
X127386477Y-100989249D01*
X127517802Y-101176800D01*
X127679700Y-101338698D01*
X127684208Y-101341855D01*
X127684211Y-101341857D01*
X127762389Y-101396598D01*
X127867251Y-101470023D01*
X127872233Y-101472346D01*
X127872238Y-101472349D01*
X127906457Y-101488305D01*
X127959742Y-101535222D01*
X127979203Y-101603499D01*
X127958661Y-101671459D01*
X127906457Y-101716695D01*
X127872238Y-101732651D01*
X127872233Y-101732654D01*
X127867251Y-101734977D01*
X127762389Y-101808402D01*
X127684211Y-101863143D01*
X127684208Y-101863145D01*
X127679700Y-101866302D01*
X127517802Y-102028200D01*
X127386477Y-102215751D01*
X127384154Y-102220733D01*
X127384151Y-102220738D01*
X127384034Y-102220989D01*
X127289716Y-102423257D01*
X127230457Y-102644413D01*
X127210502Y-102872500D01*
X122050000Y-102872500D01*
X122050000Y-99763154D01*
X122857118Y-99763154D01*
X122864173Y-99773127D01*
X122895179Y-99799051D01*
X122902098Y-99804079D01*
X123126772Y-99945015D01*
X123134307Y-99949056D01*
X123376020Y-100058194D01*
X123384051Y-100061180D01*
X123638332Y-100136502D01*
X123646684Y-100138369D01*
X123908840Y-100178484D01*
X123917374Y-100179200D01*
X124182545Y-100183367D01*
X124191096Y-100182918D01*
X124454383Y-100151057D01*
X124462784Y-100149455D01*
X124719324Y-100082153D01*
X124727426Y-100079426D01*
X124972449Y-99977934D01*
X124980117Y-99974128D01*
X125209098Y-99840322D01*
X125216179Y-99835509D01*
X125296155Y-99772801D01*
X125304625Y-99760942D01*
X125298108Y-99749318D01*
X124094312Y-98545522D01*
X124080368Y-98537908D01*
X124078535Y-98538039D01*
X124071920Y-98542290D01*
X122864410Y-99749800D01*
X122857118Y-99763154D01*
X122050000Y-99763154D01*
X122050000Y-99134315D01*
X122070002Y-99066194D01*
X122123658Y-99019701D01*
X122193932Y-99009597D01*
X122258512Y-99039091D01*
X122288565Y-99077701D01*
X122347164Y-99194213D01*
X122351520Y-99201579D01*
X122480847Y-99389750D01*
X122491101Y-99398094D01*
X122504842Y-99390948D01*
X123709478Y-98186312D01*
X123715856Y-98174632D01*
X124445908Y-98174632D01*
X124446039Y-98176465D01*
X124450290Y-98183080D01*
X125657230Y-99390020D01*
X125669439Y-99396687D01*
X125680939Y-99387997D01*
X125778331Y-99255413D01*
X125782918Y-99248185D01*
X125909462Y-99015121D01*
X125913030Y-99007327D01*
X126006771Y-98759250D01*
X126009248Y-98751044D01*
X126068454Y-98492538D01*
X126069794Y-98484077D01*
X126093531Y-98218116D01*
X126093777Y-98213177D01*
X126094166Y-98175985D01*
X126094023Y-98171019D01*
X126075862Y-97904623D01*
X126074701Y-97896149D01*
X126020919Y-97636444D01*
X126018620Y-97628209D01*
X125930088Y-97378205D01*
X125926691Y-97370354D01*
X125805050Y-97134678D01*
X125800622Y-97127366D01*
X125681531Y-96957917D01*
X125671009Y-96949537D01*
X125657621Y-96956589D01*
X124453522Y-98160688D01*
X124445908Y-98174632D01*
X123715856Y-98174632D01*
X123717092Y-98172368D01*
X123716961Y-98170535D01*
X123712710Y-98163920D01*
X122505314Y-96956524D01*
X122493304Y-96949966D01*
X122481564Y-96958934D01*
X122373435Y-97109411D01*
X122368918Y-97116696D01*
X122287354Y-97270743D01*
X122237801Y-97321587D01*
X122168627Y-97337568D01*
X122101793Y-97313614D01*
X122058520Y-97257330D01*
X122050000Y-97211784D01*
X122050000Y-96586000D01*
X122858084Y-96586000D01*
X122864480Y-96597270D01*
X124068688Y-97801478D01*
X124082632Y-97809092D01*
X124084465Y-97808961D01*
X124091080Y-97804710D01*
X125298104Y-96597686D01*
X125305295Y-96584517D01*
X125297973Y-96574280D01*
X125250733Y-96535615D01*
X125243761Y-96530660D01*
X125017622Y-96392082D01*
X125010052Y-96388124D01*
X124767204Y-96281522D01*
X124759144Y-96278620D01*
X124504092Y-96205967D01*
X124495714Y-96204185D01*
X124233156Y-96166818D01*
X124224611Y-96166191D01*
X123959408Y-96164802D01*
X123950874Y-96165339D01*
X123687933Y-96199956D01*
X123679535Y-96201649D01*
X123423738Y-96271627D01*
X123415643Y-96274446D01*
X123171699Y-96378497D01*
X123164077Y-96382381D01*
X122936513Y-96518575D01*
X122929481Y-96523462D01*
X122866553Y-96573877D01*
X122858084Y-96586000D01*
X122050000Y-96586000D01*
X122050000Y-90172500D01*
X127210502Y-90172500D01*
X127230457Y-90400587D01*
X127289716Y-90621743D01*
X127292039Y-90626724D01*
X127292039Y-90626725D01*
X127384151Y-90824262D01*
X127384154Y-90824267D01*
X127386477Y-90829249D01*
X127517802Y-91016800D01*
X127679700Y-91178698D01*
X127684208Y-91181855D01*
X127684211Y-91181857D01*
X127762389Y-91236598D01*
X127867251Y-91310023D01*
X127872233Y-91312346D01*
X127872238Y-91312349D01*
X127907049Y-91328581D01*
X127960334Y-91375498D01*
X127979795Y-91443775D01*
X127959253Y-91511735D01*
X127907049Y-91556971D01*
X127872489Y-91573086D01*
X127862993Y-91578569D01*
X127684533Y-91703528D01*
X127676125Y-91710584D01*
X127522084Y-91864625D01*
X127515028Y-91873033D01*
X127390069Y-92051493D01*
X127384586Y-92060989D01*
X127292510Y-92258447D01*
X127288764Y-92268739D01*
X127242606Y-92441003D01*
X127242942Y-92455099D01*
X127250884Y-92458500D01*
X129791967Y-92458500D01*
X129805498Y-92454527D01*
X129806727Y-92445978D01*
X129759236Y-92268739D01*
X129755490Y-92258447D01*
X129663414Y-92060989D01*
X129657931Y-92051493D01*
X129532972Y-91873033D01*
X129525916Y-91864625D01*
X129371875Y-91710584D01*
X129363467Y-91703528D01*
X129185007Y-91578569D01*
X129175511Y-91573086D01*
X129140951Y-91556971D01*
X129087666Y-91510054D01*
X129068205Y-91441777D01*
X129088747Y-91373817D01*
X129140951Y-91328581D01*
X129175762Y-91312349D01*
X129175767Y-91312346D01*
X129180749Y-91310023D01*
X129285611Y-91236598D01*
X129363789Y-91181857D01*
X129363792Y-91181855D01*
X129368300Y-91178698D01*
X129530198Y-91016800D01*
X129661523Y-90829249D01*
X129663846Y-90824267D01*
X129663849Y-90824262D01*
X129755961Y-90626725D01*
X129755961Y-90626724D01*
X129758284Y-90621743D01*
X129817543Y-90400587D01*
X129837498Y-90172500D01*
X129817543Y-89944413D01*
X129764361Y-89745935D01*
X129759707Y-89728567D01*
X129759706Y-89728565D01*
X129758284Y-89723257D01*
X129685030Y-89566162D01*
X129663849Y-89520738D01*
X129663846Y-89520733D01*
X129661523Y-89515751D01*
X129557409Y-89367061D01*
X129533357Y-89332711D01*
X129533355Y-89332708D01*
X129530198Y-89328200D01*
X129368300Y-89166302D01*
X129363792Y-89163145D01*
X129363789Y-89163143D01*
X129285611Y-89108402D01*
X129180749Y-89034977D01*
X129175767Y-89032654D01*
X129175762Y-89032651D01*
X129140951Y-89016419D01*
X129087666Y-88969502D01*
X129068205Y-88901225D01*
X129088747Y-88833265D01*
X129140951Y-88788029D01*
X129175511Y-88771914D01*
X129185007Y-88766431D01*
X129363467Y-88641472D01*
X129371875Y-88634416D01*
X129525916Y-88480375D01*
X129532972Y-88471967D01*
X129657931Y-88293507D01*
X129663414Y-88284011D01*
X129755490Y-88086553D01*
X129759236Y-88076261D01*
X129805394Y-87903997D01*
X129805058Y-87889901D01*
X129797116Y-87886500D01*
X127256033Y-87886500D01*
X127242502Y-87890473D01*
X127241273Y-87899022D01*
X127288764Y-88076261D01*
X127292510Y-88086553D01*
X127384586Y-88284011D01*
X127390069Y-88293507D01*
X127515028Y-88471967D01*
X127522084Y-88480375D01*
X127676125Y-88634416D01*
X127684533Y-88641472D01*
X127862993Y-88766431D01*
X127872489Y-88771914D01*
X127907049Y-88788029D01*
X127960334Y-88834946D01*
X127979795Y-88903223D01*
X127959253Y-88971183D01*
X127907049Y-89016419D01*
X127872238Y-89032651D01*
X127872233Y-89032654D01*
X127867251Y-89034977D01*
X127762389Y-89108402D01*
X127684211Y-89163143D01*
X127684208Y-89163145D01*
X127679700Y-89166302D01*
X127517802Y-89328200D01*
X127514645Y-89332708D01*
X127514643Y-89332711D01*
X127490591Y-89367061D01*
X127386477Y-89515751D01*
X127384154Y-89520733D01*
X127384151Y-89520738D01*
X127362970Y-89566162D01*
X127289716Y-89723257D01*
X127288294Y-89728565D01*
X127288293Y-89728567D01*
X127283639Y-89745935D01*
X127230457Y-89944413D01*
X127210502Y-90172500D01*
X122050000Y-90172500D01*
X122050000Y-85940634D01*
X127215500Y-85940634D01*
X127222255Y-86002816D01*
X127273385Y-86139205D01*
X127360739Y-86255761D01*
X127477295Y-86343115D01*
X127613684Y-86394245D01*
X127625229Y-86395499D01*
X127627910Y-86396613D01*
X127629222Y-86396925D01*
X127629172Y-86397137D01*
X127690790Y-86422738D01*
X127731218Y-86481099D01*
X127733677Y-86552053D01*
X127697384Y-86613072D01*
X127686775Y-86621647D01*
X127676125Y-86630584D01*
X127522084Y-86784625D01*
X127515028Y-86793033D01*
X127390069Y-86971493D01*
X127384586Y-86980989D01*
X127292510Y-87178447D01*
X127288764Y-87188739D01*
X127242606Y-87361003D01*
X127242942Y-87375099D01*
X127250884Y-87378500D01*
X129791967Y-87378500D01*
X129805498Y-87374527D01*
X129806727Y-87365978D01*
X129759236Y-87188739D01*
X129755490Y-87178447D01*
X129663414Y-86980989D01*
X129657931Y-86971493D01*
X129532972Y-86793033D01*
X129525916Y-86784625D01*
X129371875Y-86630584D01*
X129359254Y-86619993D01*
X129360108Y-86618975D01*
X129319776Y-86568516D01*
X129312468Y-86497897D01*
X129344500Y-86434537D01*
X129405702Y-86398553D01*
X129422762Y-86395500D01*
X129434316Y-86394245D01*
X129570705Y-86343115D01*
X129687261Y-86255761D01*
X129774615Y-86139205D01*
X129825745Y-86002816D01*
X129832500Y-85940634D01*
X129832500Y-84244366D01*
X129825745Y-84182184D01*
X129774615Y-84045795D01*
X129687261Y-83929239D01*
X129570705Y-83841885D01*
X129434316Y-83790755D01*
X129372134Y-83784000D01*
X127675866Y-83784000D01*
X127613684Y-83790755D01*
X127477295Y-83841885D01*
X127360739Y-83929239D01*
X127273385Y-84045795D01*
X127222255Y-84182184D01*
X127215500Y-84244366D01*
X127215500Y-85940634D01*
X122050000Y-85940634D01*
X122050000Y-81731062D01*
X129112493Y-81731062D01*
X129121789Y-81743077D01*
X129172994Y-81778931D01*
X129182489Y-81784414D01*
X129379947Y-81876490D01*
X129390239Y-81880236D01*
X129600688Y-81936625D01*
X129611481Y-81938528D01*
X129828525Y-81957517D01*
X129839475Y-81957517D01*
X130056519Y-81938528D01*
X130067312Y-81936625D01*
X130277761Y-81880236D01*
X130288053Y-81876490D01*
X130485511Y-81784414D01*
X130495006Y-81778931D01*
X130547048Y-81742491D01*
X130555424Y-81732012D01*
X130548356Y-81718566D01*
X129846812Y-81017022D01*
X129832868Y-81009408D01*
X129831035Y-81009539D01*
X129824420Y-81013790D01*
X129118923Y-81719287D01*
X129112493Y-81731062D01*
X122050000Y-81731062D01*
X122050000Y-80650475D01*
X128521483Y-80650475D01*
X128540472Y-80867519D01*
X128542375Y-80878312D01*
X128598764Y-81088761D01*
X128602510Y-81099053D01*
X128694586Y-81296511D01*
X128700069Y-81306006D01*
X128736509Y-81358048D01*
X128746988Y-81366424D01*
X128760434Y-81359356D01*
X129461978Y-80657812D01*
X129468356Y-80646132D01*
X130198408Y-80646132D01*
X130198539Y-80647965D01*
X130202790Y-80654580D01*
X130908287Y-81360077D01*
X130920062Y-81366507D01*
X130932077Y-81357211D01*
X130967931Y-81306006D01*
X130973414Y-81296511D01*
X131065490Y-81099053D01*
X131069236Y-81088761D01*
X131125625Y-80878312D01*
X131127528Y-80867519D01*
X131146517Y-80650475D01*
X131146517Y-80645000D01*
X133520502Y-80645000D01*
X133540457Y-80873087D01*
X133541881Y-80878400D01*
X133541881Y-80878402D01*
X133579025Y-81017022D01*
X133599716Y-81094243D01*
X133602039Y-81099224D01*
X133602039Y-81099225D01*
X133694151Y-81296762D01*
X133694154Y-81296767D01*
X133696477Y-81301749D01*
X133827802Y-81489300D01*
X133989700Y-81651198D01*
X133994208Y-81654355D01*
X133994211Y-81654357D01*
X134072389Y-81709098D01*
X134177251Y-81782523D01*
X134182233Y-81784846D01*
X134182238Y-81784849D01*
X134378765Y-81876490D01*
X134384757Y-81879284D01*
X134390065Y-81880706D01*
X134390067Y-81880707D01*
X134600598Y-81937119D01*
X134600600Y-81937119D01*
X134605913Y-81938543D01*
X134834000Y-81958498D01*
X135062087Y-81938543D01*
X135067400Y-81937119D01*
X135067402Y-81937119D01*
X135277933Y-81880707D01*
X135277935Y-81880706D01*
X135283243Y-81879284D01*
X135289235Y-81876490D01*
X135485762Y-81784849D01*
X135485767Y-81784846D01*
X135490749Y-81782523D01*
X135595611Y-81709098D01*
X135673789Y-81654357D01*
X135673792Y-81654355D01*
X135678300Y-81651198D01*
X135840198Y-81489300D01*
X135971523Y-81301749D01*
X135973846Y-81296767D01*
X135973849Y-81296762D01*
X136065961Y-81099225D01*
X136065961Y-81099224D01*
X136068284Y-81094243D01*
X136088976Y-81017022D01*
X136126119Y-80878402D01*
X136126119Y-80878400D01*
X136127543Y-80873087D01*
X136147498Y-80645000D01*
X136127543Y-80416913D01*
X136090981Y-80280461D01*
X136069707Y-80201067D01*
X136069706Y-80201065D01*
X136068284Y-80195757D01*
X135973966Y-79993489D01*
X135973849Y-79993238D01*
X135973846Y-79993233D01*
X135971523Y-79988251D01*
X135840198Y-79800700D01*
X135678300Y-79638802D01*
X135673792Y-79635645D01*
X135673789Y-79635643D01*
X135547920Y-79547509D01*
X135490749Y-79507477D01*
X135485767Y-79505154D01*
X135485762Y-79505151D01*
X135288225Y-79413039D01*
X135288224Y-79413039D01*
X135283243Y-79410716D01*
X135277935Y-79409294D01*
X135277933Y-79409293D01*
X135067402Y-79352881D01*
X135067400Y-79352881D01*
X135062087Y-79351457D01*
X134834000Y-79331502D01*
X134605913Y-79351457D01*
X134600600Y-79352881D01*
X134600598Y-79352881D01*
X134390067Y-79409293D01*
X134390065Y-79409294D01*
X134384757Y-79410716D01*
X134379776Y-79413039D01*
X134379775Y-79413039D01*
X134182238Y-79505151D01*
X134182233Y-79505154D01*
X134177251Y-79507477D01*
X134120080Y-79547509D01*
X133994211Y-79635643D01*
X133994208Y-79635645D01*
X133989700Y-79638802D01*
X133827802Y-79800700D01*
X133696477Y-79988251D01*
X133694154Y-79993233D01*
X133694151Y-79993238D01*
X133694034Y-79993489D01*
X133599716Y-80195757D01*
X133598294Y-80201065D01*
X133598293Y-80201067D01*
X133577019Y-80280461D01*
X133540457Y-80416913D01*
X133520502Y-80645000D01*
X131146517Y-80645000D01*
X131146517Y-80639525D01*
X131127528Y-80422481D01*
X131125625Y-80411688D01*
X131069236Y-80201239D01*
X131065490Y-80190947D01*
X130973414Y-79993489D01*
X130967931Y-79983994D01*
X130931491Y-79931952D01*
X130921012Y-79923576D01*
X130907566Y-79930644D01*
X130206022Y-80632188D01*
X130198408Y-80646132D01*
X129468356Y-80646132D01*
X129469592Y-80643868D01*
X129469461Y-80642035D01*
X129465210Y-80635420D01*
X128759713Y-79929923D01*
X128747938Y-79923493D01*
X128735923Y-79932789D01*
X128700069Y-79983994D01*
X128694586Y-79993489D01*
X128602510Y-80190947D01*
X128598764Y-80201239D01*
X128542375Y-80411688D01*
X128540472Y-80422481D01*
X128521483Y-80639525D01*
X128521483Y-80650475D01*
X122050000Y-80650475D01*
X122050000Y-79557988D01*
X129112576Y-79557988D01*
X129119644Y-79571434D01*
X129821188Y-80272978D01*
X129835132Y-80280592D01*
X129836965Y-80280461D01*
X129843580Y-80276210D01*
X130549077Y-79570713D01*
X130555507Y-79558938D01*
X130546211Y-79546923D01*
X130495006Y-79511069D01*
X130485511Y-79505586D01*
X130288053Y-79413510D01*
X130277761Y-79409764D01*
X130067312Y-79353375D01*
X130056519Y-79351472D01*
X129839475Y-79332483D01*
X129828525Y-79332483D01*
X129611481Y-79351472D01*
X129600688Y-79353375D01*
X129390239Y-79409764D01*
X129379947Y-79413510D01*
X129182489Y-79505586D01*
X129172994Y-79511069D01*
X129120952Y-79547509D01*
X129112576Y-79557988D01*
X122050000Y-79557988D01*
X122050000Y-74549000D01*
X122765502Y-74549000D01*
X122785457Y-74777087D01*
X122844716Y-74998243D01*
X122847039Y-75003224D01*
X122847039Y-75003225D01*
X122939151Y-75200762D01*
X122939154Y-75200767D01*
X122941477Y-75205749D01*
X123072802Y-75393300D01*
X123234700Y-75555198D01*
X123239208Y-75558355D01*
X123239211Y-75558357D01*
X123317389Y-75613098D01*
X123422251Y-75686523D01*
X123427233Y-75688846D01*
X123427238Y-75688849D01*
X123624775Y-75780961D01*
X123629757Y-75783284D01*
X123635065Y-75784706D01*
X123635067Y-75784707D01*
X123845598Y-75841119D01*
X123845600Y-75841119D01*
X123850913Y-75842543D01*
X124079000Y-75862498D01*
X124307087Y-75842543D01*
X124312400Y-75841119D01*
X124312402Y-75841119D01*
X124522933Y-75784707D01*
X124522935Y-75784706D01*
X124528243Y-75783284D01*
X124533225Y-75780961D01*
X124730762Y-75688849D01*
X124730767Y-75688846D01*
X124735749Y-75686523D01*
X124840611Y-75613098D01*
X124918789Y-75558357D01*
X124918792Y-75558355D01*
X124923300Y-75555198D01*
X125085198Y-75393300D01*
X125216523Y-75205749D01*
X125218846Y-75200767D01*
X125218849Y-75200762D01*
X125310961Y-75003225D01*
X125310961Y-75003224D01*
X125313284Y-74998243D01*
X125372543Y-74777087D01*
X125392498Y-74549000D01*
X132925502Y-74549000D01*
X132945457Y-74777087D01*
X133004716Y-74998243D01*
X133007039Y-75003224D01*
X133007039Y-75003225D01*
X133099151Y-75200762D01*
X133099154Y-75200767D01*
X133101477Y-75205749D01*
X133232802Y-75393300D01*
X133394700Y-75555198D01*
X133399208Y-75558355D01*
X133399211Y-75558357D01*
X133477389Y-75613098D01*
X133582251Y-75686523D01*
X133587233Y-75688846D01*
X133587238Y-75688849D01*
X133784775Y-75780961D01*
X133789757Y-75783284D01*
X133795065Y-75784706D01*
X133795067Y-75784707D01*
X134005598Y-75841119D01*
X134005600Y-75841119D01*
X134010913Y-75842543D01*
X134239000Y-75862498D01*
X134467087Y-75842543D01*
X134472400Y-75841119D01*
X134472402Y-75841119D01*
X134682933Y-75784707D01*
X134682935Y-75784706D01*
X134688243Y-75783284D01*
X134693225Y-75780961D01*
X134890762Y-75688849D01*
X134890767Y-75688846D01*
X134895749Y-75686523D01*
X135000611Y-75613098D01*
X135078789Y-75558357D01*
X135078792Y-75558355D01*
X135083300Y-75555198D01*
X135245198Y-75393300D01*
X135376523Y-75205749D01*
X135378846Y-75200767D01*
X135378849Y-75200762D01*
X135470961Y-75003225D01*
X135470961Y-75003224D01*
X135473284Y-74998243D01*
X135532543Y-74777087D01*
X135552498Y-74549000D01*
X135532543Y-74320913D01*
X135473284Y-74099757D01*
X135470961Y-74094775D01*
X135378849Y-73897238D01*
X135378846Y-73897233D01*
X135376523Y-73892251D01*
X135245198Y-73704700D01*
X135083300Y-73542802D01*
X135078792Y-73539645D01*
X135078789Y-73539643D01*
X135000611Y-73484902D01*
X134895749Y-73411477D01*
X134890767Y-73409154D01*
X134890762Y-73409151D01*
X134693225Y-73317039D01*
X134693224Y-73317039D01*
X134688243Y-73314716D01*
X134682935Y-73313294D01*
X134682933Y-73313293D01*
X134472402Y-73256881D01*
X134472400Y-73256881D01*
X134467087Y-73255457D01*
X134239000Y-73235502D01*
X134010913Y-73255457D01*
X134005600Y-73256881D01*
X134005598Y-73256881D01*
X133795067Y-73313293D01*
X133795065Y-73313294D01*
X133789757Y-73314716D01*
X133784776Y-73317039D01*
X133784775Y-73317039D01*
X133587238Y-73409151D01*
X133587233Y-73409154D01*
X133582251Y-73411477D01*
X133477389Y-73484902D01*
X133399211Y-73539643D01*
X133399208Y-73539645D01*
X133394700Y-73542802D01*
X133232802Y-73704700D01*
X133101477Y-73892251D01*
X133099154Y-73897233D01*
X133099151Y-73897238D01*
X133007039Y-74094775D01*
X133004716Y-74099757D01*
X132945457Y-74320913D01*
X132925502Y-74549000D01*
X125392498Y-74549000D01*
X125372543Y-74320913D01*
X125313284Y-74099757D01*
X125310961Y-74094775D01*
X125218849Y-73897238D01*
X125218846Y-73897233D01*
X125216523Y-73892251D01*
X125085198Y-73704700D01*
X124923300Y-73542802D01*
X124918792Y-73539645D01*
X124918789Y-73539643D01*
X124840611Y-73484902D01*
X124735749Y-73411477D01*
X124730767Y-73409154D01*
X124730762Y-73409151D01*
X124533225Y-73317039D01*
X124533224Y-73317039D01*
X124528243Y-73314716D01*
X124522935Y-73313294D01*
X124522933Y-73313293D01*
X124312402Y-73256881D01*
X124312400Y-73256881D01*
X124307087Y-73255457D01*
X124079000Y-73235502D01*
X123850913Y-73255457D01*
X123845600Y-73256881D01*
X123845598Y-73256881D01*
X123635067Y-73313293D01*
X123635065Y-73313294D01*
X123629757Y-73314716D01*
X123624776Y-73317039D01*
X123624775Y-73317039D01*
X123427238Y-73409151D01*
X123427233Y-73409154D01*
X123422251Y-73411477D01*
X123317389Y-73484902D01*
X123239211Y-73539643D01*
X123239208Y-73539645D01*
X123234700Y-73542802D01*
X123072802Y-73704700D01*
X122941477Y-73892251D01*
X122939154Y-73897233D01*
X122939151Y-73897238D01*
X122847039Y-74094775D01*
X122844716Y-74099757D01*
X122785457Y-74320913D01*
X122765502Y-74549000D01*
X122050000Y-74549000D01*
X122050000Y-68655427D01*
X122070002Y-68587306D01*
X122123658Y-68540813D01*
X122193932Y-68530709D01*
X122258512Y-68560203D01*
X122288565Y-68598813D01*
X122348660Y-68718299D01*
X122351086Y-68721828D01*
X122351089Y-68721834D01*
X122501343Y-68940453D01*
X122503774Y-68943990D01*
X122688082Y-69146543D01*
X122898175Y-69322207D01*
X122901816Y-69324491D01*
X123126524Y-69465451D01*
X123126528Y-69465453D01*
X123130164Y-69467734D01*
X123198044Y-69498383D01*
X123375845Y-69578664D01*
X123375849Y-69578666D01*
X123379757Y-69580430D01*
X123383877Y-69581650D01*
X123383876Y-69581650D01*
X123638223Y-69656991D01*
X123638227Y-69656992D01*
X123642336Y-69658209D01*
X123646570Y-69658857D01*
X123646575Y-69658858D01*
X123908798Y-69698983D01*
X123908800Y-69698983D01*
X123913040Y-69699632D01*
X124052412Y-69701822D01*
X124182571Y-69703867D01*
X124182577Y-69703867D01*
X124186862Y-69703934D01*
X124458735Y-69671034D01*
X124723627Y-69601541D01*
X124727587Y-69599901D01*
X124727592Y-69599899D01*
X124850131Y-69549141D01*
X124976636Y-69496741D01*
X125213082Y-69358573D01*
X125428589Y-69189594D01*
X125470309Y-69146543D01*
X125616186Y-68996009D01*
X125619169Y-68992931D01*
X125621702Y-68989483D01*
X125621706Y-68989478D01*
X125778757Y-68775678D01*
X125781295Y-68772223D01*
X125808654Y-68721834D01*
X125909918Y-68535330D01*
X125909919Y-68535328D01*
X125911968Y-68531554D01*
X126008769Y-68275377D01*
X126069907Y-68008433D01*
X126094251Y-67735661D01*
X126094693Y-67693500D01*
X126076067Y-67420278D01*
X126020532Y-67152112D01*
X125929117Y-66893965D01*
X125803513Y-66650612D01*
X125793540Y-66636421D01*
X125648508Y-66430062D01*
X125646045Y-66426557D01*
X125459625Y-66225945D01*
X125456310Y-66223231D01*
X125456306Y-66223228D01*
X125251023Y-66055206D01*
X125247705Y-66052490D01*
X125014204Y-65909401D01*
X125000472Y-65903373D01*
X124946136Y-65857677D01*
X124925132Y-65789859D01*
X124944127Y-65721450D01*
X124997091Y-65674171D01*
X125051118Y-65662000D01*
X148509921Y-65662000D01*
X148578042Y-65682002D01*
G37*
%TD.AperFunction*%
%TD*%
M02*
